PathFileType	4	(X/Y/Z)	C:/Users/opensim2020/Desktop/walking_exp_matlab/subject03_walking08_straight_03.trc																																																																																																																																																							
DataRate	CameraRate	NumFrames	NumMarkers	Units	OrigDataRate	OrigDataStartFrame	OrigNumFrames																																																																																																																																																			
100	100	4	51	mm	100	2432	299																																																																																																																																																			
Frame#	Time	LFHD			RFHD			LBHD			RBHD			C7			T10			CLAV			STRN			RBAK			LSHO			LUPA			LELB			LFRM			LWRA			LWRB			LFIN			RSHO			RUPA			RELB			RFRM			RWRA			RWRB			RFIN			LASI			RASI			LPSI			RPSI			LTHI			LKNE			LTIB			LANK			LHEE			LTOE			RTHI			RKNE			RTIB			RANK			RHEE			RTOE			*39			*40			*41			*42			*43			*44			*45			*46			*47			*48			*49			*50		
		X1	Y1	Z1	X2	Y2	Z2	X3	Y3	Z3	X4	Y4	Z4	X5	Y5	Z5	X6	Y6	Z6	X7	Y7	Z7	X8	Y8	Z8	X9	Y9	Z9	X10	Y10	Z10	X11	Y11	Z11	X12	Y12	Z12	X13	Y13	Z13	X14	Y14	Z14	X15	Y15	Z15	X16	Y16	Z16	X17	Y17	Z17	X18	Y18	Z18	X19	Y19	Z19	X20	Y20	Z20	X21	Y21	Z21	X22	Y22	Z22	X23	Y23	Z23	X24	Y24	Z24	X25	Y25	Z25	X26	Y26	Z26	X27	Y27	Z27	X28	Y28	Z28	X29	Y29	Z29	X30	Y30	Z30	X31	Y31	Z31	X32	Y32	Z32	X33	Y33	Z33	X34	Y34	Z34	X35	Y35	Z35	X36	Y36	Z36	X37	Y37	Z37	X38	Y38	Z38	X39	Y39	Z39	X40	Y40	Z40	X41	Y41	Z41	X42	Y42	Z42	X43	Y43	Z43	X44	Y44	Z44	X45	Y45	Z45	X46	Y46	Z46	X47	Y47	Z47	X48	Y48	Z48	X49	Y49	Z49	X50	Y50	Z50	X51	Y51	Z51
																																																																																																																																																										
1	0	-989.7691	1625.39355	-1051.2511	-1004.86945	1628.74744	-918.67627	-1110.51477	1565.63281	-1060.2124	-1121.59827	1569.29028	-929.27808	-1137.46094	1417.32471	-991.16479	-1183.95972	1108.65332	-986.98712	-1017.61987	1337.57971	-995.40045	-980.84399	1170.18665	-1000.06702	-1188.27063	1247.73499	-885.54761	-1069.08337	1375.4729	-1149.60376	-1100.43884	1180.54492	-1224.31934	-1101.81104	1058.26001	-1240.62048	-1074.17664	931.23206	-1243.77405	-1051.0365	813.38306	-1215.75342	-1077.54956	818.76172	-1264.63367	-1057.00146	736.9068	-1258.17883	-1049.97937	1364.12744	-834.98743	-1003.38745	1151.10168	-757.06287	-959.08429	1048.26697	-742.73804	-902.13281	923.85345	-742.17987	-847.83417	842.25775	-780.75818	-871.02075	828.5672	-734.12665	-826.47839	770.2616	-745.36676	-1031.6853	936.14374	-1107.32605	-1026.78455	933.88684	-872.40338	-1192.22546	964.41461	-1059.32153	-1185.90527	977.91864	-909.64569	-1024.41943	642.19904	-1165.80615	-962.34222	474.09924	-1133.8949	-1025.38306	287.09027	-1128.78662	-1064.46082	81.94037	-1085.13074	-1107.00842	50.26807	-1043.73694	-923.64923	37.10773	-1071.66235	-1117.62854	646.41504	-833.72736	-1132.34814	466.97665	-868.34113	-1205.62329	289.62292	-864.61823	-1266.8219	80.92516	-912.8999	-1315.69678	55.05114	-961.44287	-1129.58997	30.26626	-930.84344	NaN	NaN	NaN	NaN	NaN	NaN	NaN	NaN	NaN	NaN	NaN	NaN	NaN	NaN	NaN	NaN	NaN	NaN	NaN	NaN	NaN	NaN	NaN	NaN	NaN	NaN	NaN	NaN	NaN	NaN	NaN	NaN	NaN	NaN	NaN	NaN
2	0.01	-983.14575	1624.84534	-1051.73193	-998.00134	1628.1073	-919.18713	-1103.76892	1564.85803	-1060.61401	-1114.7002	1568.39697	-929.67157	-1130.50391	1416.86389	-991.51001	-1177.8562	1108.33606	-987.16547	-1010.98895	1336.70642	-995.78918	-974.80164	1169.22009	-999.9682	-1181.68152	1247.5896	-885.65503	-1062.43701	1374.5293	-1150.08044	-1094.97595	1179.49744	-1224.09973	-1097.33923	1057.26563	-1240.14185	-1070.10876	930.10742	-1242.4502	-1046.98401	812.40289	-1214.099	-1073.60425	817.37317	-1262.53235	-1053.16968	735.66302	-1255.91113	-1042.85583	1363.48584	-835.36554	-996.51013	1150.3678	-757.75195	-952.36475	1047.4248	-743.62256	-895.60162	922.95667	-743.24353	-841.44586	841.20972	-781.93518	-864.55444	827.61847	-735.3988	-820.0589	769.22931	-746.90039	-1025.64258	935.53149	-1107.54822	-1020.73187	933.29962	-872.7179	-1186.38965	963.70959	-1059.61743	-1180.16235	977.23218	-909.89209	-1018.28491	641.52753	-1165.85413	-954.86304	474.09991	-1132.52368	-1009.86096	284.98849	-1128.17395	-1039.18457	77.9912	-1085.18164	-1080.4054	44.79447	-1044.27759	-896.74017	37.12926	-1070.43787	-1112.64905	646.01563	-834.08044	-1128.80847	466.74429	-868.52057	-1203.48767	289.84229	-864.78473	-1266.45508	81.75266	-912.98743	-1315.43213	56.04041	-961.53717	-1129.49622	30.24819	-930.88214	NaN	NaN	NaN	NaN	NaN	NaN	NaN	NaN	NaN	NaN	NaN	NaN	NaN	NaN	NaN	NaN	NaN	NaN	NaN	NaN	NaN	NaN	NaN	NaN	NaN	NaN	NaN	NaN	NaN	NaN	NaN	NaN	NaN	NaN	NaN	NaN
3	0.02	-976.41803	1624.26099	-1052.31958	-991.29285	1627.4325	-919.62366	-1096.88965	1563.9491	-1061.08972	-1107.78381	1567.47998	-930.17877	-1123.4845	1416.36938	-992.00342	-1171.76746	1107.99695	-987.49402	-1004.27954	1335.85144	-996.22675	-968.51697	1168.24646	-1000.37189	-1175.05591	1247.3916	-885.88489	-1055.60364	1373.41528	-1150.58728	-1089.4137	1178.42944	-1223.96191	-1092.62	1056.06519	-1239.57336	-1065.76953	928.84808	-1241.40088	-1042.81128	811.27008	-1212.34705	-1069.57483	816.03333	-1260.71997	-1049.25354	734.30695	-1253.64941	-1035.70776	1362.83752	-835.94611	-989.80133	1149.55359	-758.47693	-945.76349	1046.51221	-744.53851	-889.26697	921.89862	-744.2901	-835.29681	840.19427	-783.15979	-858.45856	826.41211	-736.57068	-814.15662	767.99115	-748.17902	-1019.44305	934.85645	-1107.94885	-1015.3197	932.52216	-872.3877	-1180.59363	962.95795	-1059.99194	-1174.30322	976.48621	-910.30768	-1012.52484	640.44531	-1165.57825	-947.81873	473.79791	-1131.14465	-994.78363	283.08765	-1127.63867	-1014.76074	74.53061	-1085.57251	-1054.30933	40.50357	-1044.75208	-870.16095	37.48679	-1069.49084	-1107.75061	645.63861	-834.35547	-1125.18408	466.54938	-868.6532	-1201.30139	290.14221	-864.8645	-1266.22009	82.64488	-912.66431	-1315.18384	57.14719	-961.50879	-1129.43091	30.25485	-930.90308	NaN	NaN	NaN	NaN	NaN	NaN	NaN	NaN	NaN	NaN	NaN	NaN	NaN	NaN	NaN	NaN	NaN	NaN	NaN	NaN	NaN	NaN	NaN	NaN	NaN	NaN	NaN	NaN	NaN	NaN	NaN	NaN	NaN	NaN	NaN	NaN
4	0.03	-969.61652	1623.56738	-1052.89734	-984.50751	1626.69885	-920.20502	-1090.00305	1563.0354	-1061.67114	-1100.82251	1566.49939	-930.75885	-1116.47095	1415.89392	-992.56854	-1165.45032	1107.54126	-988.00073	-997.37213	1335.03076	-996.9024	-962.15277	1167.26868	-1000.82092	-1168.4425	1247.14014	-886.22034	-1048.62061	1372.177	-1151.08154	-1083.63513	1177.2738	-1223.70032	-1087.79089	1054.85486	-1239.00623	-1061.38599	927.54071	-1240.21948	-1038.52844	810.1004	-1210.57813	-1065.52185	814.61346	-1258.94177	-1045.39807	732.88794	-1251.35022	-1028.53503	1362.10522	-836.5401	-983.18073	1148.52539	-759.55011	-939.36804	1045.44641	-745.43677	-883.18616	920.65997	-745.34283	-829.47589	838.93958	-784.31079	-852.65802	825.14221	-737.7981	-808.53644	766.54645	-749.5921	-1013.21039	934.03027	-1108.2395	-1009.30389	931.92603	-872.60675	-1174.35242	961.90558	-1060.44763	-1168.39502	975.72223	-910.78198	-1006.62378	639.41833	-1165.7821	-941.08636	473.39023	-1129.78784	-980.24786	281.42111	-1127.12842	-990.26294	71.90466	-1086.05664	-1028.58301	36.85348	-1045.14868	-844.37183	37.98018	-1068.80432	-1102.83203	645.2951	-834.58368	-1121.33167	466.31384	-868.72363	-1198.85754	290.38034	-864.88074	-1265.52979	83.24952	-912.83813	-1314.94495	58.25483	-961.38989	-1129.37146	30.236	-930.86609	NaN	NaN	NaN	NaN	NaN	NaN	NaN	NaN	NaN	NaN	NaN	NaN	NaN	NaN	NaN	NaN	NaN	NaN	NaN	NaN	NaN	NaN	NaN	NaN	NaN	NaN	NaN	NaN	NaN	NaN	NaN	NaN	NaN	NaN	NaN	NaN
